<svg width="251" height="132" viewBox="0 0 251 132" fill="none" xmlns="http://www.w3.org/2000/svg">
<g filter="url(#filter0_d_27_61)">
<path d="M35.7241 63.2766C33.7283 63.2766 32.3653 62.0456 31.6351 59.5831C30.9293 57.1207 30.5764 53.9772 30.5764 50.1527C30.5764 47.6642 30.9901 45.3328 31.8177 43.1586C32.6695 40.9582 33.9596 39.19 35.6876 37.854C37.4157 36.4918 39.5211 35.8108 42.0037 35.8108C43.9996 35.8108 45.8128 36.2692 47.4436 37.186C49.0743 38.0767 50.3643 39.3602 51.3135 41.0368C52.2871 42.7133 52.7739 44.6517 52.7739 46.8521C52.7739 49.3931 52.2993 51.528 51.35 53.2569C50.4008 54.9858 49.1716 56.2694 47.6626 57.1076C46.1536 57.9458 44.5593 58.365 42.8799 58.365C41.5169 58.365 40.2634 58.1161 39.1195 57.6184C39.2655 58.4566 39.3385 59.0985 39.3385 59.5438C39.3385 62.0321 38.1337 63.2766 35.7241 63.2766ZM42.3688 52.2746C43.245 52.2746 43.9995 51.934 44.6324 51.253C45.2895 50.5457 45.6181 49.7336 45.6181 48.8168C45.6181 47.8737 45.2895 47.0617 44.6324 46.3806C43.9995 45.6733 43.245 45.3197 42.3688 45.3197C41.5169 45.3197 40.7624 45.6733 40.1052 46.3806C39.4481 47.0617 39.1195 47.8737 39.1195 48.8168C39.1195 49.7336 39.4481 50.5457 40.1052 51.253C40.7624 51.934 41.5169 52.2746 42.3688 52.2746ZM62.337 63.2373C60.56 63.2373 59.0021 62.7658 57.6638 61.8228C56.3248 60.8535 55.2904 59.5176 54.5603 57.8149C53.8544 56.086 53.5015 54.0951 53.5015 51.8423C53.5015 49.6419 53.8301 47.913 54.4872 46.6557C55.1444 45.3983 56.0571 44.7696 57.2257 44.7696C59.2942 44.7696 60.329 45.9091 60.329 48.1881C60.329 48.6596 60.3164 49.0788 60.2925 49.4455C60.2679 49.786 60.2434 50.0872 60.2195 50.3492C60.1219 51.397 60.0734 52.2353 60.0734 52.864C60.0734 54.0165 60.2925 54.8941 60.7306 55.4966C61.1687 56.0991 61.7038 56.4003 62.337 56.4003C62.9941 56.4003 63.5292 56.1122 63.9434 55.5359C64.3815 54.9334 64.6005 54.0428 64.6005 52.864C64.6005 52.0257 64.564 51.253 64.491 50.5457C64.4665 50.3099 64.442 49.9694 64.418 49.5241C64.3935 49.0525 64.3815 48.6203 64.3815 48.2274C64.3815 45.9222 65.4157 44.7696 67.4848 44.7696C68.6531 44.7696 69.5532 45.3983 70.1864 46.6557C70.8436 47.8868 71.1722 49.6157 71.1722 51.8423C71.1722 55.3263 70.4175 58.103 68.9086 60.1725C67.3992 62.2157 65.2087 63.2373 62.337 63.2373ZM76.122 68.8562C74.9292 68.8562 74.065 68.2011 73.5299 66.8916C72.9942 65.6078 72.6656 64.1411 72.5441 62.4908C72.4466 60.8404 72.3981 58.6663 72.3981 55.9681C72.3981 53.8987 72.4711 52.0781 72.6171 50.5064C72.7871 48.9347 73.1648 47.5725 73.7489 46.4199C74.3331 45.2673 75.2213 44.691 76.4141 44.691C77.6554 44.691 78.5556 45.2149 79.1158 46.2627C79.6754 45.8174 80.3691 45.4638 81.1968 45.2018C82.0485 44.9137 82.9367 44.7696 83.8619 44.7696C85.4193 44.7696 86.8557 45.1887 88.17 46.027C89.4843 46.8652 90.5306 47.9916 91.3098 49.4062C92.0885 50.8207 92.4781 52.3662 92.4781 54.0428C92.4781 55.7193 92.0885 57.2779 91.3098 58.7186C90.5306 60.1332 89.4843 61.2596 88.17 62.0978C86.8557 62.9359 85.4193 63.3552 83.8619 63.3552C82.9127 63.3552 82.0239 63.2244 81.1968 62.9623C80.3691 62.6743 79.6634 62.2943 79.0793 61.8228C79.0793 63.4995 79.0302 64.7961 78.9332 65.7128C78.8357 66.6294 78.5681 67.376 78.13 67.9525C77.7159 68.5548 77.0467 68.8562 76.122 68.8562ZM83.6794 56.8326C84.312 56.8326 84.8597 56.5837 85.3223 56.086C85.8089 55.5621 86.0525 54.9596 86.0525 54.2785C86.0525 53.5975 85.8089 53.0081 85.3223 52.5103C84.8597 51.9864 84.312 51.7245 83.6794 51.7245C83.0462 51.7245 82.4866 51.9864 82 52.5103C81.5373 53.0081 81.3063 53.5975 81.3063 54.2785C81.3063 54.9596 81.5373 55.5621 82 56.086C82.4866 56.5837 83.0462 56.8326 83.6794 56.8326ZM97.3001 68.8562C96.1073 68.8562 95.2431 68.2011 94.708 66.8916C94.1723 65.6078 93.8438 64.1411 93.7223 62.4908C93.6247 60.8404 93.5762 58.6663 93.5762 55.9681C93.5762 53.8987 93.6492 52.0781 93.7953 50.5064C93.9653 48.9347 94.3429 47.5725 94.9271 46.4199C95.5112 45.2673 96.3994 44.691 97.5922 44.691C98.8335 44.691 99.7337 45.2149 100.294 46.2627C100.854 45.8174 101.547 45.4638 102.375 45.2018C103.227 44.9137 104.115 44.7696 105.04 44.7696C106.597 44.7696 108.034 45.1887 109.348 46.027C110.662 46.8652 111.709 47.9916 112.488 49.4062C113.267 50.8207 113.656 52.3662 113.656 54.0428C113.656 55.7193 113.267 57.2779 112.488 58.7186C111.709 60.1332 110.662 61.2596 109.348 62.0978C108.034 62.9359 106.597 63.3552 105.04 63.3552C104.091 63.3552 103.202 63.2244 102.375 62.9623C101.547 62.6743 100.842 62.2943 100.257 61.8228C100.257 63.4995 100.208 64.7961 100.111 65.7128C100.014 66.6294 99.7462 67.376 99.3081 67.9525C98.894 68.5548 98.2248 68.8562 97.3001 68.8562ZM104.858 56.8326C105.49 56.8326 106.038 56.5837 106.5 56.086C106.987 55.5621 107.231 54.9596 107.231 54.2785C107.231 53.5975 106.987 53.0081 106.5 52.5103C106.038 51.9864 105.49 51.7245 104.858 51.7245C104.224 51.7245 103.665 51.9864 103.178 52.5103C102.715 53.0081 102.484 53.5975 102.484 54.2785C102.484 54.9596 102.715 55.5621 103.178 56.086C103.665 56.5837 104.224 56.8326 104.858 56.8326ZM120.459 69.0527C119.145 69.0527 118.049 68.7776 117.173 68.2275C116.297 67.6774 115.859 66.8652 115.859 65.7914C115.859 64.9269 116.236 64.246 116.991 63.7481C117.745 63.2502 118.633 63.028 119.656 63.0802C120.726 63.1323 121.554 63.0801 122.138 62.923C122.747 62.7658 123.209 62.4779 123.526 62.0585C121.287 62.0585 119.498 61.7178 118.159 61.0369C116.82 60.3296 115.847 59.2425 115.238 57.7756C114.654 56.2825 114.362 54.3178 114.362 51.8816C114.362 49.786 114.654 48.0964 115.238 46.8128C115.847 45.5031 116.796 44.8482 118.086 44.8482C119.23 44.8482 120.069 45.2018 120.605 45.9091C121.165 46.5902 121.445 47.4808 121.445 48.581L121.408 50.3099C121.384 50.6505 121.372 51.1481 121.372 51.8031C121.372 53.0604 121.518 54.0165 121.81 54.6714C122.102 55.3001 122.686 55.6145 123.562 55.6145C124.438 55.6145 125.023 55.3001 125.315 54.6714C125.607 54.0165 125.753 53.0735 125.753 51.8423C125.753 51.1874 125.741 50.6898 125.716 50.3492L125.68 48.6596C125.68 47.4808 125.947 46.5509 126.483 45.8698C127.043 45.1887 127.895 44.8482 129.039 44.8482C130.328 44.8482 131.278 45.5031 131.886 46.8128C132.495 48.1226 132.799 49.8122 132.799 51.8816C132.799 54.9727 132.385 57.8149 131.558 60.4082C130.754 62.9752 129.428 65.0577 127.578 66.6558C125.753 68.2539 123.38 69.0527 120.459 69.0527Z" fill="#ff8c2e"/>
</g>
<g filter="url(#filter1_d_27_61)">
<path d="M46.2205 90.0204C46.2205 93.8447 45.685 97.2239 44.6141 100.158C43.5918 103.092 42.1315 105.554 40.233 107.545C41.8394 110.217 42.6426 112.81 42.6426 115.325C42.6426 117.473 41.8638 119.254 40.306 120.669C38.797 122.084 37.0689 122.791 35.1217 122.791C34.0021 122.791 32.9798 122.607 32.055 122.241C31.1301 121.874 30.1321 121.245 29.0612 120.355C28.1363 119.569 27.2601 118.495 26.4326 117.133C25.605 115.77 24.9478 114.356 24.4611 112.889C22.8547 112.68 21.2483 112.234 19.6419 111.553C19.9339 113.23 20.08 114.513 20.08 115.404C20.08 120.381 17.6704 122.869 12.8512 122.869C8.81083 122.869 5.96312 120.328 4.30806 115.247C2.65298 110.165 1.82544 103.957 1.82544 96.6217C1.82544 91.6443 2.65298 86.982 4.30806 82.6333C6.01183 78.2325 8.59177 74.6961 12.048 72.0242C15.5042 69.3001 19.7149 67.9377 24.6801 67.9377C28.6718 67.9377 32.2984 68.8544 35.5598 70.6883C38.8213 72.4693 41.4013 75.0369 43.2998 78.3897C45.2469 81.7425 46.2205 85.6196 46.2205 90.0204ZM18.9117 93.714C18.9117 95.495 19.5689 97.0668 20.8832 98.4291C22.1975 99.7387 23.7065 100.394 25.4103 100.394C27.1627 100.394 28.6718 99.7387 29.9374 98.4291C31.2518 97.0668 31.9089 95.495 31.9089 93.714C31.9089 91.8801 31.2518 90.3084 29.9374 88.9988C28.6718 87.6364 27.1627 86.9556 25.4103 86.9556C23.7065 86.9556 22.1975 87.6364 20.8832 88.9988C19.5689 90.3612 18.9117 91.9329 18.9117 93.714ZM64.5772 122.791C60.9747 122.791 57.7865 122.031 55.0118 120.512C52.2371 118.992 50.0709 116.87 48.5132 114.146C47.0041 111.369 46.2496 108.252 46.2496 104.795C46.2496 101.389 47.0041 98.2456 48.5132 95.3643C50.0709 92.483 52.2127 90.1776 54.9388 88.4487C57.665 86.7198 60.7557 85.8554 64.2121 85.8554C67.3273 85.8554 70.078 86.5362 72.4631 87.8986C74.8482 89.261 76.6736 91.0684 77.9395 93.321C79.2053 95.5214 79.838 97.8268 79.838 100.237C79.838 104.166 78.4506 107.047 75.6759 108.881C72.9497 110.662 69.6884 111.553 65.8915 111.553C63.3604 111.553 61.2183 111.212 59.4659 110.531C60.9262 113.098 63.3358 114.382 66.6947 114.382C68.0575 114.382 69.5179 114.199 71.0758 113.832C71.6599 113.675 72.2195 113.596 72.7552 113.596C73.8259 113.596 74.6782 113.884 75.3108 114.461C75.9925 115.037 76.3331 115.823 76.3331 116.818C76.3331 118.442 75.4084 119.857 73.5584 121.062C71.7084 122.214 68.7147 122.791 64.5772 122.791ZM59.6849 100.944C60.123 101.678 60.7072 102.228 61.4374 102.594C62.216 102.909 63.0683 103.066 63.993 103.066C65.0638 103.066 65.989 102.804 66.7677 102.28C67.5954 101.756 68.009 101.075 68.009 100.237C68.009 99.2936 67.6439 98.4813 66.9137 97.8004C66.232 97.1196 65.2343 96.7788 63.92 96.7788C62.6057 96.7788 61.5589 97.2239 60.7802 98.1148C60.05 98.9528 59.6849 99.8959 59.6849 100.944ZM96.0651 122.791C91.7816 122.791 88.3737 122.031 85.8426 120.512C83.3114 118.992 82.0456 117.028 82.0456 114.618C82.0456 113.046 82.5322 111.841 83.506 111.003C84.5282 110.112 85.818 109.667 87.3759 109.667C88.2522 109.667 88.9578 109.798 89.4935 110.06C90.0291 110.322 90.5642 110.689 91.0999 111.16C91.4895 111.527 91.8055 111.789 92.0491 111.946C92.3412 112.103 92.6817 112.182 93.0714 112.182C94.0936 112.182 94.6047 111.789 94.6047 111.003C94.6047 110.269 94.3372 109.719 93.8015 109.353C93.2659 108.933 92.3412 108.436 91.0268 107.859C89.8101 107.336 89.0069 106.969 88.6172 106.759C86.3782 105.607 84.7228 104.244 83.652 102.673C82.5813 101.101 82.0456 99.4243 82.0456 97.6433C82.0456 95.6522 82.7028 93.7662 84.0171 91.9851C85.3799 90.1512 87.2784 88.6845 89.7125 87.5843C92.1951 86.4319 95.0428 85.8554 98.2556 85.8554C101.03 85.8554 103.537 86.2747 105.777 87.1127C108.065 87.9508 109.866 89.1038 111.18 90.5705C112.494 91.9851 113.151 93.5568 113.151 95.2857C113.151 96.9096 112.665 98.1412 111.691 98.9792C110.766 99.8173 109.5 100.237 107.894 100.237C107.261 100.237 106.75 100.184 106.361 100.079C106.02 99.9223 105.557 99.6865 104.973 99.3722C104.633 99.1628 104.268 98.9792 103.878 98.8221C103.537 98.6649 103.148 98.5863 102.71 98.5863C102.32 98.5863 101.98 98.7435 101.688 99.0578C101.395 99.32 101.249 99.6601 101.249 100.079C101.249 100.865 101.785 101.442 102.856 101.808C105.679 102.804 107.943 104.061 109.646 105.58C111.399 107.1 112.275 109.195 112.275 111.867C112.275 115.273 110.79 117.945 107.821 119.883C104.9 121.821 100.982 122.791 96.0651 122.791ZM133.6 122.869C130.096 122.922 126.956 122.136 124.181 120.512C121.455 118.888 119.313 116.661 117.755 113.832C116.247 110.951 115.443 107.754 115.346 104.245C115.297 100.735 116.052 97.5911 117.609 94.8142C119.167 92.0373 121.333 89.8368 124.108 88.2129C126.931 86.589 130.096 85.7768 133.6 85.7768C137.008 85.7768 140.075 86.5626 142.801 88.1344C145.575 89.7061 147.766 91.9065 149.372 94.7356C150.979 97.5647 151.83 100.735 151.928 104.245C151.976 107.65 151.222 110.767 149.664 113.596C148.107 116.373 145.916 118.599 143.093 120.276C140.318 121.953 137.154 122.817 133.6 122.869ZM133.819 111.396C135.134 111.396 136.278 110.846 137.251 109.746C138.225 108.645 138.712 107.362 138.712 105.895C138.712 104.428 138.225 103.171 137.251 102.123C136.278 101.022 135.134 100.472 133.819 100.472C132.505 100.472 131.361 101.022 130.388 102.123C129.414 103.171 128.927 104.428 128.927 105.895C128.927 107.362 129.414 108.645 130.388 109.746C131.361 110.846 132.505 111.396 133.819 111.396ZM162.663 122.791C159.548 122.791 157.454 120.826 156.383 116.897C155.361 112.968 154.85 107.545 154.85 100.63C154.85 97.4861 154.971 94.8664 155.215 92.7709C155.507 90.6227 156.164 88.8152 157.186 87.3485C158.257 85.829 159.888 85.0695 162.079 85.0695C163.441 85.0695 164.634 85.4102 165.657 86.0911C166.727 86.772 167.409 87.7414 167.701 88.9988C168.772 87.9508 170.159 87.1649 171.863 86.6412C173.567 86.1175 175.393 85.8554 177.339 85.8554C178.897 85.8554 180.479 86.2747 182.086 87.1127C183.741 87.9508 185.104 89.1038 186.175 90.5705C187.294 91.9851 187.854 93.5304 187.854 95.2071C187.854 96.8838 187.294 98.3769 186.175 99.6865C185.104 100.944 183.668 101.573 181.867 101.573C181.282 101.573 180.723 101.494 180.187 101.337C179.701 101.18 179.262 101.022 178.873 100.865C177.899 100.446 177.12 100.237 176.536 100.237C174.638 100.237 172.958 101.049 171.498 102.673C170.086 104.244 169.38 106.288 169.38 108.802C169.38 111.579 169.283 113.884 169.088 115.718C168.894 117.552 168.31 119.202 167.336 120.669C166.362 122.084 164.805 122.791 162.663 122.791Z" fill="#38d386"/>
</g>
<mask id="mask0_27_61" style="mask-type:luminance" maskUnits="userSpaceOnUse" x="140" y="0" width="111" height="122">
<path d="M251 0H140.332V121.563H251V0Z" fill="white"/>
</mask>
<g mask="url(#mask0_27_61)">
<g filter="url(#filter2_d_27_61)">
<path fill-rule="evenodd" clip-rule="evenodd" d="M191.791 47.0007C199.624 72.2175 196.084 96.5638 188.52 121.563H203.787C209.567 81.7835 204.596 64.61 198.816 49.0881L191.791 47.0007Z" fill="#9A5D26"/>
<path fill-rule="evenodd" clip-rule="evenodd" d="M168.347 101.985C170.401 76.4022 174.582 55.3404 191.791 47.0007L198.816 49.0881C209.428 56.1911 218.887 71.5151 227.919 95.8615C240.63 70.6642 232.565 52.1252 202.393 40.0955C219.63 34.3973 235.798 41.6883 251 55.924C242.888 23.2777 219.723 15.4328 199.02 34.051C201.836 10.7535 192.804 5.14426 180.687 0C186.383 9.24976 190.694 18.8754 190.054 29.9554C171.367 11.6933 155.766 18.4501 141.41 34.5457C155.199 31.1228 169.481 29.6784 181.523 38.2654C159.901 35.3569 147.765 48.3264 140.332 65.3517C149.373 56.5275 157.903 50.8094 166.935 49.7707C157.448 68.0924 161.638 84.2571 168.384 102.024L168.347 101.985Z" fill="#38d386"/>
<path fill-rule="evenodd" clip-rule="evenodd" d="M190.054 29.9554L189.933 37.0288C177.035 21.0222 155.403 25.2563 141.391 34.5457C155.952 17.263 173.105 13.1179 190.054 29.9554Z" fill="#51B53C"/>
<path fill-rule="evenodd" clip-rule="evenodd" d="M140.332 65.3517C149.057 43.5283 170.224 30.272 191.187 42.0543C167.892 34.4368 153.954 48.6033 140.332 65.3517Z" fill="#51B53C"/>
<path fill-rule="evenodd" clip-rule="evenodd" d="M199.02 34.1005C220.587 28.2737 238.633 33.3981 251 55.9735C246.047 30.7667 224.1 11.8714 199.02 34.1005Z" fill="#51B53C"/>
<path fill-rule="evenodd" clip-rule="evenodd" d="M202.393 40.0955C230.771 52.0855 241.113 66.8061 227.919 95.8614C233.029 68.4085 219.686 54.1729 202.393 40.0955Z" fill="#51B53C"/>
<path fill-rule="evenodd" clip-rule="evenodd" d="M191.791 47.0007C169.825 47.624 162.521 71.1093 168.384 102.024C154.967 71.5152 160.356 33.6949 191.791 47.0007Z" fill="#51B53C"/>
<path fill-rule="evenodd" clip-rule="evenodd" d="M191.791 47.0007C199.225 73.4939 195.889 98.6709 188.52 121.563H197.813C201.669 82.1298 198.389 63.1955 194.542 47.8218L191.754 47.0007H191.791Z" fill="#ff8c2e"/>
</g>
</g>
<path d="M147.462 89.0233C149.825 89.0233 151.741 86.5494 151.741 83.4977C151.741 80.4461 149.825 77.9722 147.462 77.9722C145.1 77.9722 143.184 80.4461 143.184 83.4977C143.184 86.5494 145.1 89.0233 147.462 89.0233Z" fill="#38d386"/>
<path d="M137.194 83.4977C139.557 83.4977 141.473 81.0238 141.473 77.9721C141.473 74.9204 139.557 72.4465 137.194 72.4465C134.831 72.4465 132.916 74.9204 132.916 77.9721C132.916 81.0238 134.831 83.4977 137.194 83.4977Z" fill="#38d386"/>
<path d="M118.369 89.0233C120.732 89.0233 122.648 86.5494 122.648 83.4977C122.648 80.4461 120.732 77.9722 118.369 77.9722C116.006 77.9722 114.091 80.4461 114.091 83.4977C114.091 86.5494 116.006 89.0233 118.369 89.0233Z" fill="#38d386"/>
<path d="M127.497 83.4977C129.86 83.4977 131.775 81.0238 131.775 77.9721C131.775 74.9204 129.86 72.4465 127.497 72.4465C125.134 72.4465 123.218 74.9204 123.218 77.9721C123.218 81.0238 125.134 83.4977 127.497 83.4977Z" fill="#38d386"/>
<defs>
<filter id="filter0_d_27_61" x="30.5764" y="35.8108" width="111.223" height="42.2419" filterUnits="userSpaceOnUse" color-interpolation-filters="sRGB">
<feFlood flood-opacity="0" result="BackgroundImageFix"/>
<feColorMatrix in="SourceAlpha" type="matrix" values="0 0 0 0 0 0 0 0 0 0 0 0 0 0 0 0 0 0 127 0" result="hardAlpha"/>
<feOffset dx="5" dy="5"/>
<feGaussianBlur stdDeviation="2"/>
<feComposite in2="hardAlpha" operator="out"/>
<feColorMatrix type="matrix" values="0 0 0 0 0 0 0 0 0 0 0 0 0 0 0 0 0 0 0.25 0"/>
<feBlend mode="normal" in2="BackgroundImageFix" result="effect1_dropShadow_27_61"/>
<feBlend mode="normal" in="SourceGraphic" in2="effect1_dropShadow_27_61" result="shape"/>
</filter>
<filter id="filter1_d_27_61" x="1.82544" y="67.9377" width="195.029" height="63.9341" filterUnits="userSpaceOnUse" color-interpolation-filters="sRGB">
<feFlood flood-opacity="0" result="BackgroundImageFix"/>
<feColorMatrix in="SourceAlpha" type="matrix" values="0 0 0 0 0 0 0 0 0 0 0 0 0 0 0 0 0 0 127 0" result="hardAlpha"/>
<feOffset dx="5" dy="5"/>
<feGaussianBlur stdDeviation="2"/>
<feComposite in2="hardAlpha" operator="out"/>
<feColorMatrix type="matrix" values="0 0 0 0 0 0 0 0 0 0 0 0 0 0 0 0 0 0 0.25 0"/>
<feBlend mode="normal" in2="BackgroundImageFix" result="effect1_dropShadow_27_61"/>
<feBlend mode="normal" in="SourceGraphic" in2="effect1_dropShadow_27_61" result="shape"/>
</filter>
<filter id="filter2_d_27_61" x="136.332" y="0" width="118.668" height="129.563" filterUnits="userSpaceOnUse" color-interpolation-filters="sRGB">
<feFlood flood-opacity="0" result="BackgroundImageFix"/>
<feColorMatrix in="SourceAlpha" type="matrix" values="0 0 0 0 0 0 0 0 0 0 0 0 0 0 0 0 0 0 127 0" result="hardAlpha"/>
<feOffset dy="4"/>
<feGaussianBlur stdDeviation="2"/>
<feComposite in2="hardAlpha" operator="out"/>
<feColorMatrix type="matrix" values="0 0 0 0 0 0 0 0 0 0 0 0 0 0 0 0 0 0 0.25 0"/>
<feBlend mode="normal" in2="BackgroundImageFix" result="effect1_dropShadow_27_61"/>
<feBlend mode="normal" in="SourceGraphic" in2="effect1_dropShadow_27_61" result="shape"/>
</filter>
</defs>
</svg>
