<?xml version="1.0" standalone="no"?>
<!DOCTYPE svg PUBLIC "-//W3C//DTD SVG 20010904//EN"
 "http://www.w3.org/TR/2001/REC-SVG-20010904/DTD/svg10.dtd">
<svg version="1.0" xmlns="http://www.w3.org/2000/svg"
 width="1024.000000pt" height="1024.000000pt" viewBox="0 0 1024.000000 1024.000000"
 preserveAspectRatio="xMidYMid meet">

<g transform="translate(0.000000,1024.000000) scale(0.100000,-0.100000)"
fill="#000000" stroke="none">
<path d="M1630 7630 l0 -980 975 0 975 0 0 980 0 980 -975 0 -975 0 0 -980z
m1670 0 l0 -700 -695 0 -695 0 0 700 0 700 695 0 695 0 0 -700z"/>
<path d="M2187 8043 c-4 -3 -7 -192 -7 -420 l0 -413 420 0 420 0 0 420 0 420
-413 0 c-228 0 -417 -3 -420 -7z"/>
<path d="M3860 8190 l0 -420 280 0 280 0 0 -840 0 -840 140 0 140 0 0 560 0
560 140 0 140 0 0 -420 0 -420 140 0 140 0 0 -140 0 -140 280 0 280 0 0 -140
0 -140 -140 0 -140 0 0 -140 0 -140 -140 0 -140 0 0 -140 0 -140 -280 0 -280
0 0 140 0 140 140 0 140 0 0 140 0 140 -420 0 -420 0 0 700 0 700 -140 0 -140
0 0 -700 0 -700 -280 0 -280 0 0 140 0 140 140 0 140 0 0 140 0 140 -140 0
-140 0 0 -140 0 -140 -140 0 -140 0 0 140 0 140 -420 0 -421 0 3 -137 3 -138
418 -3 417 -2 0 -140 0 -140 140 0 140 0 0 -140 0 -140 280 0 280 0 0 -280 0
-280 140 0 140 0 0 140 0 140 140 0 140 0 0 -140 0 -140 420 0 420 0 0 -140 0
-140 -700 0 -700 0 0 -140 0 -140 420 0 420 0 0 -140 0 -140 140 0 140 0 0
-140 0 -140 -140 0 -140 0 2 -277 3 -278 558 -3 557 -2 0 -135 0 -135 -280 0
-280 0 0 -140 0 -140 140 0 140 0 0 -140 0 -140 140 0 140 0 0 -140 0 -140
-280 0 -280 0 0 140 0 140 -140 0 -140 0 0 -140 0 -140 140 0 140 0 0 -140 0
-140 -560 0 -560 0 0 -140 0 -140 560 0 560 0 0 140 0 140 140 0 140 0 0 -140
0 -140 140 0 140 0 0 140 0 140 140 0 140 0 0 -140 0 -140 140 0 140 0 0 140
0 140 140 0 140 0 0 140 0 140 140 0 140 0 0 280 0 281 138 -3 137 -3 3 -137
3 -138 139 0 140 0 0 140 0 141 138 -3 137 -3 3 -278 2 -277 140 0 140 0 0
420 0 420 280 0 280 0 0 555 0 555 -840 0 -840 0 0 420 0 420 280 0 280 0 0
-140 0 -140 140 0 140 0 0 -140 0 -140 418 2 417 3 3 138 3 137 -421 0 -420 0
0 140 0 140 418 2 417 3 3 418 2 417 -140 0 -140 0 0 140 0 139 138 3 137 3 3
138 3 137 -421 0 -420 0 0 -140 0 -140 -140 0 -140 0 0 -140 0 -140 -140 0
-140 0 0 -140 0 -140 420 0 421 0 -3 -137 -3 -138 -137 -3 -138 -3 0 -139 0
-140 -140 0 -140 0 0 140 0 140 -280 0 -280 0 0 -140 0 -140 -140 0 -140 0 0
140 0 140 -140 0 -140 0 0 -140 0 -140 -140 0 -140 0 0 280 0 280 -140 0 -140
0 0 140 0 140 280 0 280 0 0 -140 0 -140 140 0 140 0 0 140 0 140 140 0 140 0
0 140 0 140 140 0 140 0 0 140 0 140 -420 0 -420 0 0 420 0 420 -140 0 -140 0
0 -280 0 -280 -140 0 -140 0 0 140 0 140 -140 0 -140 0 0 -140 0 -140 -140 0
-140 0 0 560 0 560 140 0 140 0 0 -280 0 -280 140 0 140 0 0 420 0 420 140 0
140 0 0 -140 0 -140 140 0 140 0 0 140 0 140 -140 0 -140 0 0 140 0 140 140 0
140 0 0 140 0 140 -280 0 -280 0 0 -280 0 -280 -140 0 -140 0 0 140 0 140
-140 0 -140 0 0 140 0 140 -280 0 -280 0 0 -280 0 -280 -280 0 -280 0 0 280 0
280 -140 0 -140 0 0 -420z m1120 -560 l0 -140 -140 0 -140 0 0 140 0 140 140
0 140 0 0 -140z m1400 -1400 l0 -140 140 0 140 0 0 -140 0 -140 -140 0 -140 0
0 140 0 140 -140 0 -140 0 0 140 0 140 140 0 140 0 0 -140z m1680 -280 l0
-140 -140 0 -140 0 0 140 0 140 140 0 140 0 0 -140z m-3920 -280 l0 -140 -140
0 -140 0 0 140 0 140 140 0 140 0 0 -140z m1680 -280 l0 -140 -140 0 -140 0 0
-140 0 -140 140 0 140 0 0 -140 0 -140 280 0 280 0 0 140 0 140 140 0 140 0 0
-280 0 -280 -280 0 -280 0 -2 -417 -3 -418 -417 -3 -418 -2 0 560 0 560 140 0
140 0 0 140 0 140 -140 0 -140 0 0 140 0 140 140 0 140 0 0 140 0 140 140 0
140 0 0 -140z m1400 -1955 l0 -415 -420 0 -420 0 0 415 0 415 420 0 420 0 0
-415z m840 -140 l0 -275 -280 0 -280 0 0 275 0 275 280 0 280 0 0 -275z
m-1402 -697 l3 -138 -141 0 -140 0 0 -280 0 -280 -140 0 -140 0 0 280 0 280
-140 0 -140 0 0 140 0 140 418 -2 417 -3 3 -137z"/>
<path d="M5540 4270 l0 -140 140 0 140 0 0 140 0 140 -140 0 -140 0 0 -140z"/>
<path d="M6660 3430 l0 -141 138 3 137 3 3 138 3 137 -141 0 -140 0 0 -140z"/>
<path d="M6660 7630 l0 -980 980 0 980 0 -2 978 -3 977 -977 3 -978 2 0 -980z
m1678 -2 l2 -698 -700 0 -700 0 0 700 0 700 698 -2 697 -3 3 -697z"/>
<path d="M7220 7630 l0 -420 420 0 420 0 -2 418 -3 417 -417 3 -418 2 0 -420z"/>
<path d="M2182 5673 l3 -138 137 -3 138 -3 2 -277 3 -277 138 -3 137 -3 0 141
0 140 140 0 140 0 0 140 0 140 -280 0 -280 0 0 140 0 140 -140 0 -141 0 3
-137z"/>
<path d="M3300 5110 l0 -140 -140 0 -140 0 0 -140 0 -140 -140 0 -140 0 0
-140 0 -141 -137 3 -138 3 -3 138 -3 137 -139 0 -140 0 2 -277 3 -278 277 -3
277 -2 3 -138 3 -137 418 -3 417 -2 0 140 0 139 -137 3 -138 3 -3 138 -3 137
141 0 140 0 0 140 0 140 -140 0 -140 0 0 140 0 140 140 0 140 0 0 140 0 140
-140 0 -140 0 0 -140z m0 -560 l0 -140 -140 0 -140 0 0 -140 0 -140 -140 0
-140 0 0 140 0 140 140 0 140 0 0 140 0 140 140 0 140 0 0 -140z"/>
<path d="M1630 4410 l0 -561 138 3 137 3 3 558 2 557 -140 0 -140 0 0 -560z"/>
<path d="M3862 3853 l3 -278 278 -3 277 -2 0 280 0 280 -280 0 -280 0 2 -277z"/>
<path d="M1630 2595 l0 -975 975 0 975 0 0 975 0 975 -975 0 -975 0 0 -975z
m1670 0 l0 -695 -695 0 -695 0 0 695 0 695 695 0 695 0 0 -695z"/>
<path d="M2187 3013 c-4 -3 -7 -192 -7 -420 l0 -413 420 0 420 0 0 420 0 420
-413 0 c-228 0 -417 -3 -420 -7z"/>
<path d="M3867 3013 c-4 -3 -7 -192 -7 -420 l0 -413 420 0 420 0 0 140 0 140
-140 0 -140 0 0 140 0 140 -140 0 -140 0 0 140 0 140 -133 0 c-74 0 -137 -3
-140 -7z"/>
<path d="M8340 2320 l0 -420 -420 0 -419 0 -3 138 -3 137 -137 3 -138 3 0
-141 0 -140 -140 0 -140 0 0 -140 0 -140 840 0 840 0 -2 558 -3 557 -137 3
-138 3 0 -421z"/>
</g>
</svg>
