<svg width="449" height="488" viewBox="0 0 449 488" fill="none" xmlns="http://www.w3.org/2000/svg">
<path d="M440.345 405.245L362.704 362.111" stroke="black" stroke-width="25" stroke-miterlimit="10" stroke-linecap="round" stroke-linejoin="round"/>
<path d="M405.839 448.379L328.197 405.245" stroke="black" stroke-width="25" stroke-miterlimit="10" stroke-linecap="round" stroke-linejoin="round"/>
<path d="M36.3083 354.411C27.0411 331.471 21.9446 306.407 21.9446 280.156L52.1385 8.4104L143.217 97.2909C166.924 87.2821 192.998 81.7386 220.362 81.7386H228.989C256.352 81.7386 282.426 87.2821 306.133 97.2909L397.212 8.4104L427.406 280.156C427.406 306.407 422.31 331.471 413.042 354.411" stroke="black" stroke-width="25" stroke-miterlimit="10" stroke-linecap="round" stroke-linejoin="round"/>
<path d="M9.00391 405.245L86.6455 362.111" stroke="black" stroke-width="25" stroke-miterlimit="10" stroke-linecap="round" stroke-linejoin="round"/>
<path d="M43.5105 448.379L121.152 405.245" stroke="black" stroke-width="25" stroke-miterlimit="10" stroke-linecap="round" stroke-linejoin="round"/>
<path d="M188.488 333.392H257.502" stroke="black" stroke-width="25" stroke-miterlimit="10" stroke-linecap="round" stroke-linejoin="round"/>
<path d="M136.727 359.273C136.727 359.273 201.428 393.78 222.995 333.392C244.562 393.78 312.623 358.859 312.623 358.859C312.623 358.859 290.279 395.201 283.694 402.273C250.37 438.057 205.716 435.899 170.287 403.241C162.53 396.09 136.727 359.273 136.727 359.273Z" stroke="black" stroke-width="25" stroke-miterlimit="10" stroke-linecap="round" stroke-linejoin="round"/>
<path d="M115.604 448.89C146 467.876 181.903 478.84 220.371 478.84H228.981C267.45 478.84 303.369 467.876 333.749 448.89" stroke="black" stroke-width="25" stroke-miterlimit="10" stroke-linecap="round" stroke-linejoin="round"/>
<path d="M383.965 269.461C358.135 235.021 306.475 235.021 289.255 269.461" stroke="black" stroke-width="25" stroke-miterlimit="10" stroke-linecap="round" stroke-linejoin="round"/>
<path d="M65.3943 269.461C91.2242 235.021 142.885 235.021 160.105 269.461" stroke="black" stroke-width="25" stroke-miterlimit="10" stroke-linecap="round" stroke-linejoin="round"/>
</svg>
