<svg width="447" height="391" viewBox="0 0 447 391" fill="none" xmlns="http://www.w3.org/2000/svg">
<path d="M175.179 150.391C175.179 150.391 161.38 159.888 154.169 155.497C146.958 151.105 144.672 141.698 149.064 134.487C153.455 127.276 162.862 124.989 170.074 129.381C177.285 133.773 175.179 150.391 175.179 150.391Z" fill="black"/>
<path d="M202.723 203.117H249.704C252.77 203.117 255.54 204.949 256.739 207.772L265.591 228.599L248.932 237.356C244.226 239.83 238.494 236.863 237.796 231.592" stroke="black" stroke-width="25" stroke-miterlimit="10" stroke-linecap="round" stroke-linejoin="round"/>
<path d="M215.349 231.837C214.483 236.629 209.419 239.401 204.916 237.548L187.233 230.271L195.565 208.075C196.685 205.093 199.536 203.117 202.721 203.117" stroke="black" stroke-width="25" stroke-miterlimit="10" stroke-linecap="round" stroke-linejoin="round"/>
<path d="M182.293 302.654C182.293 302.654 176.799 369.875 205.281 378.621C225.508 384.832 244.648 382.691 251.626 376.71C258.315 370.976 271.749 342.507 265.59 302.654" stroke="black" stroke-width="25" stroke-miterlimit="10" stroke-linecap="round" stroke-linejoin="round"/>
<path d="M287.995 150.391C287.995 150.391 301.793 159.889 309.005 155.497C316.217 151.105 318.502 141.698 314.111 134.487C309.719 127.275 300.312 124.989 293.101 129.381C285.889 133.773 287.995 150.391 287.995 150.391Z" fill="black"/>
<path d="M145.509 247.709C141.878 275.247 162.589 291.669 178.263 300.008C187.412 304.875 198.527 303.969 206.682 297.576L226.412 282.109L246.143 297.576C254.299 303.969 265.414 304.875 274.562 300.008C290.236 291.669 310.947 275.247 307.316 247.709" stroke="black" stroke-width="25" stroke-miterlimit="10" stroke-linecap="round" stroke-linejoin="round"/>
<path d="M102.137 137.001C84.4278 176.444 98.2506 236.57 103.047 254.542C103.979 258.036 103.624 261.693 102.075 264.962L86.8825 297.02C82.1199 307.07 68.5862 308.895 61.4187 300.391C37.0168 271.441 -4.00577 213.321 11.3581 172.835C65.3472 30.5685 132.658 34.1423 132.658 34.1423C154.409 19.3609 232.833 -18.8913 322.337 40.8312C322.337 40.8312 388.326 27.7018 436.526 170.31C450.314 211.102 410.308 268.669 386.45 297.546C379.332 306.161 365.686 304.379 360.9 294.28L345.809 262.436C344.26 259.168 343.905 255.51 344.838 252.016C349.635 234.045 363.457 173.919 345.747 134.475" stroke="black" stroke-width="25" stroke-miterlimit="10" stroke-linecap="round" stroke-linejoin="round"/>
<path d="M351.958 275.409C351.958 275.409 328.428 326.792 292.294 338.638" stroke="black" stroke-width="25" stroke-miterlimit="10" stroke-linecap="round" stroke-linejoin="round"/>
<path d="M98.209 279.279C98.209 279.279 121.739 325.775 157.873 337.621" stroke="black" stroke-width="25" stroke-miterlimit="10" stroke-linecap="round" stroke-linejoin="round"/>
<path d="M226.413 282.109V258.946" stroke="black" stroke-width="25" stroke-miterlimit="10" stroke-linecap="round" stroke-linejoin="round"/>
</svg>
